<svg width="377" height="67" viewBox="0 0 377 67" fill="none" xmlns="http://www.w3.org/2000/svg">
<rect x="0.5" y="0.5" width="376" height="66" rx="11.5" fill="#E1E5AD"/>
<rect x="0.5" y="0.5" width="376" height="66" rx="11.5" stroke="black"/>
<path d="M96.4596 27.8636V39.5H94.3686V29.6136H89.2777V39.5H87.1868V27.8636H96.4596ZM98.8899 42.7727V30.7727H100.913V32.2159H101.032C101.138 32.0038 101.288 31.7784 101.481 31.5398C101.674 31.2973 101.935 31.0909 102.265 30.9205C102.594 30.7462 103.015 30.6591 103.526 30.6591C104.201 30.6591 104.809 30.8314 105.35 31.1761C105.896 31.517 106.327 32.0227 106.646 32.6932C106.968 33.3598 107.129 34.178 107.129 35.1477C107.129 36.1061 106.971 36.9205 106.657 37.5909C106.343 38.2614 105.915 38.7727 105.373 39.125C104.831 39.4773 104.218 39.6534 103.532 39.6534C103.032 39.6534 102.617 39.5701 102.288 39.4034C101.958 39.2367 101.693 39.036 101.492 38.8011C101.295 38.5625 101.142 38.3371 101.032 38.125H100.947V42.7727H98.8899ZM100.907 35.1364C100.907 35.7008 100.987 36.1951 101.146 36.6193C101.309 37.0436 101.541 37.375 101.844 37.6136C102.151 37.8485 102.523 37.9659 102.958 37.9659C103.413 37.9659 103.793 37.8447 104.1 37.6023C104.407 37.3561 104.638 37.0208 104.793 36.5966C104.952 36.1686 105.032 35.6818 105.032 35.1364C105.032 34.5947 104.954 34.1136 104.799 33.6932C104.644 33.2727 104.413 32.9432 104.106 32.7045C103.799 32.4659 103.416 32.3466 102.958 32.3466C102.519 32.3466 102.146 32.4621 101.839 32.6932C101.532 32.9242 101.299 33.2481 101.14 33.6648C100.985 34.0814 100.907 34.572 100.907 35.1364ZM112.697 39.6705C111.844 39.6705 111.106 39.483 110.481 39.108C109.856 38.733 109.371 38.2083 109.026 37.5341C108.685 36.8598 108.515 36.072 108.515 35.1705C108.515 34.2689 108.685 33.4792 109.026 32.8011C109.371 32.1231 109.856 31.5966 110.481 31.2216C111.106 30.8466 111.844 30.6591 112.697 30.6591C113.549 30.6591 114.288 30.8466 114.913 31.2216C115.538 31.5966 116.021 32.1231 116.362 32.8011C116.706 33.4792 116.879 34.2689 116.879 35.1705C116.879 36.072 116.706 36.8598 116.362 37.5341C116.021 38.2083 115.538 38.733 114.913 39.108C114.288 39.483 113.549 39.6705 112.697 39.6705ZM112.708 38.0227C113.17 38.0227 113.557 37.8958 113.867 37.642C114.178 37.3845 114.409 37.0398 114.56 36.608C114.716 36.1761 114.793 35.6951 114.793 35.1648C114.793 34.6307 114.716 34.1477 114.56 33.7159C114.409 33.2803 114.178 32.9337 113.867 32.6761C113.557 32.4186 113.17 32.2898 112.708 32.2898C112.235 32.2898 111.841 32.4186 111.526 32.6761C111.216 32.9337 110.983 33.2803 110.827 33.7159C110.676 34.1477 110.6 34.6307 110.6 35.1648C110.6 35.6951 110.676 36.1761 110.827 36.608C110.983 37.0398 111.216 37.3845 111.526 37.642C111.841 37.8958 112.235 38.0227 112.708 38.0227ZM122.585 42.4659V27.8636H124.647V42.4659H122.585ZM122.585 39.6705C121.944 39.6705 121.359 39.5625 120.829 39.3466C120.299 39.1307 119.84 38.8239 119.454 38.4261C119.071 38.0284 118.774 37.5549 118.562 37.0057C118.353 36.4527 118.249 35.8409 118.249 35.1705C118.249 34.5 118.353 33.8883 118.562 33.3352C118.774 32.7822 119.071 32.3068 119.454 31.9091C119.84 31.5076 120.299 31.1989 120.829 30.983C121.359 30.767 121.944 30.6591 122.585 30.6591H123.022V39.6705H122.585ZM122.585 38.0114H122.84V32.3182H122.585C122.221 32.3182 121.899 32.3939 121.619 32.5455C121.342 32.6932 121.109 32.8996 120.92 33.1648C120.734 33.4261 120.592 33.7292 120.494 34.0739C120.399 34.4148 120.352 34.7803 120.352 35.1705C120.352 35.6894 120.437 36.1648 120.607 36.5966C120.778 37.0246 121.028 37.3674 121.357 37.625C121.691 37.8826 122.1 38.0114 122.585 38.0114ZM124.647 39.6705H124.21V30.6591H124.647C125.287 30.6591 125.872 30.767 126.403 30.983C126.933 31.1989 127.389 31.5076 127.772 31.9091C128.158 32.3068 128.456 32.7822 128.664 33.3352C128.876 33.8883 128.982 34.5 128.982 35.1705C128.982 35.8409 128.876 36.4527 128.664 37.0057C128.456 37.5549 128.158 38.0284 127.772 38.4261C127.389 38.8239 126.933 39.1307 126.403 39.3466C125.872 39.5625 125.287 39.6705 124.647 39.6705ZM124.647 38.0114C125.014 38.0114 125.336 37.9375 125.613 37.7898C125.889 37.642 126.121 37.4375 126.306 37.1761C126.496 36.9148 126.638 36.6136 126.732 36.2727C126.827 35.928 126.874 35.5606 126.874 35.1705C126.874 34.6515 126.791 34.1761 126.624 33.7443C126.458 33.3125 126.208 32.9678 125.874 32.7102C125.545 32.4489 125.136 32.3182 124.647 32.3182H124.391V38.0114H124.647ZM132.701 36.7159L136.195 30.7727H138.309V39.5H136.32V33.5511L132.837 39.5H130.718V30.7727H132.701V36.7159ZM139.819 39.5L139.808 37.8068H140.109C140.336 37.8068 140.527 37.7557 140.683 37.6534C140.838 37.5511 140.967 37.3807 141.069 37.142C141.171 36.8996 141.251 36.5739 141.308 36.1648C141.364 35.7557 141.404 35.2462 141.427 34.6364L141.58 30.7727H147.944V39.5H145.955V32.4602H143.45L143.313 35.2727C143.279 36 143.198 36.6307 143.069 37.1648C142.944 37.6951 142.766 38.1326 142.535 38.4773C142.308 38.822 142.022 39.0795 141.677 39.25C141.332 39.4167 140.925 39.5 140.455 39.5H139.819ZM151.407 33.6136H153.981C155.094 33.6136 155.956 33.8845 156.566 34.4261C157.176 34.9678 157.483 35.678 157.487 36.5568C157.483 37.1288 157.343 37.6364 157.066 38.0795C156.793 38.5227 156.396 38.8712 155.873 39.125C155.354 39.375 154.723 39.5 153.981 39.5H150.015V30.7727H151.998V37.8125H153.981C154.428 37.8125 154.795 37.6989 155.083 37.4716C155.371 37.2405 155.515 36.9451 155.515 36.5852C155.515 36.2064 155.371 35.8977 155.083 35.6591C154.795 35.4205 154.428 35.3011 153.981 35.3011H151.407V33.6136ZM171.104 31.5795C171.01 31.2727 170.879 30.9981 170.712 30.7557C170.55 30.5095 170.353 30.2992 170.121 30.125C169.894 29.9508 169.633 29.8201 169.337 29.733C169.042 29.642 168.72 29.5966 168.371 29.5966C167.746 29.5966 167.19 29.7538 166.701 30.0682C166.212 30.3826 165.828 30.8447 165.548 31.4545C165.271 32.0606 165.133 32.7992 165.133 33.6705C165.133 34.5492 165.271 35.2936 165.548 35.9034C165.824 36.5133 166.209 36.9773 166.701 37.2955C167.193 37.6098 167.765 37.767 168.417 37.767C169.008 37.767 169.519 37.6534 169.951 37.4261C170.387 37.1989 170.722 36.8769 170.957 36.4602C171.192 36.0398 171.309 35.5473 171.309 34.983L171.786 35.0568H168.627V33.4091H173.349V34.8068C173.349 35.803 173.137 36.6648 172.712 37.392C172.288 38.1193 171.705 38.6799 170.962 39.0739C170.22 39.464 169.368 39.6591 168.406 39.6591C167.334 39.6591 166.392 39.4186 165.582 38.9375C164.775 38.4527 164.144 37.7652 163.69 36.875C163.239 35.9811 163.014 34.9205 163.014 33.6932C163.014 32.7538 163.146 31.9148 163.411 31.1761C163.68 30.4375 164.055 29.8106 164.536 29.2955C165.017 28.7765 165.582 28.3826 166.229 28.1136C166.877 27.8409 167.582 27.7045 168.343 27.7045C168.987 27.7045 169.587 27.7992 170.144 27.9886C170.701 28.1742 171.195 28.4394 171.627 28.7841C172.063 29.1288 172.421 29.5379 172.701 30.0114C172.981 30.4848 173.165 31.0076 173.252 31.5795H171.104ZM175.843 39.5V30.7727H177.9V39.5H175.843ZM176.877 29.5341C176.551 29.5341 176.271 29.4261 176.036 29.2102C175.801 28.9905 175.684 28.7273 175.684 28.4205C175.684 28.1098 175.801 27.8466 176.036 27.6307C176.271 27.411 176.551 27.3011 176.877 27.3011C177.207 27.3011 177.487 27.411 177.718 27.6307C177.953 27.8466 178.07 28.1098 178.07 28.4205C178.07 28.7273 177.953 28.9905 177.718 29.2102C177.487 29.4261 177.207 29.5341 176.877 29.5341ZM184.373 30.7727V32.3636H179.356V30.7727H184.373ZM180.594 28.6818H182.651V36.875C182.651 37.1515 182.693 37.3636 182.776 37.5114C182.863 37.6553 182.977 37.7538 183.117 37.8068C183.257 37.8598 183.413 37.8864 183.583 37.8864C183.712 37.8864 183.829 37.8769 183.935 37.858C184.045 37.839 184.129 37.822 184.185 37.8068L184.532 39.4148C184.422 39.4527 184.265 39.4943 184.06 39.5398C183.86 39.5852 183.613 39.6117 183.322 39.6193C182.807 39.6345 182.343 39.5568 181.93 39.3864C181.517 39.2121 181.189 38.9432 180.947 38.5795C180.708 38.2159 180.591 37.7614 180.594 37.2159V28.6818ZM186.371 39.5V27.8636H188.479V32.7898H193.871V27.8636H195.985V39.5H193.871V34.5568H188.479V39.5H186.371ZM203.749 35.8295V30.7727H205.806V39.5H203.812V37.9489H203.721C203.524 38.4375 203.2 38.8371 202.749 39.1477C202.302 39.4583 201.751 39.6136 201.096 39.6136C200.524 39.6136 200.018 39.4867 199.579 39.233C199.143 38.9754 198.802 38.6023 198.556 38.1136C198.31 37.6212 198.187 37.0265 198.187 36.3295V30.7727H200.244V36.0114C200.244 36.5644 200.395 37.0038 200.698 37.3295C201.001 37.6553 201.399 37.8182 201.891 37.8182C202.194 37.8182 202.488 37.7443 202.772 37.5966C203.056 37.4489 203.289 37.2292 203.471 36.9375C203.657 36.642 203.749 36.2727 203.749 35.8295ZM208.012 39.5V27.8636H210.069V32.2159H210.154C210.26 32.0038 210.41 31.7784 210.603 31.5398C210.796 31.2973 211.058 31.0909 211.387 30.9205C211.717 30.7462 212.137 30.6591 212.648 30.6591C213.323 30.6591 213.931 30.8314 214.472 31.1761C215.018 31.517 215.45 32.0227 215.768 32.6932C216.09 33.3598 216.251 34.178 216.251 35.1477C216.251 36.1061 216.094 36.9205 215.779 37.5909C215.465 38.2614 215.037 38.7727 214.495 39.125C213.953 39.4773 213.34 39.6534 212.654 39.6534C212.154 39.6534 211.739 39.5701 211.41 39.4034C211.08 39.2367 210.815 39.036 210.614 38.8011C210.417 38.5625 210.264 38.3371 210.154 38.125H210.035V39.5H208.012ZM210.029 35.1364C210.029 35.7008 210.109 36.1951 210.268 36.6193C210.431 37.0436 210.664 37.375 210.967 37.6136C211.273 37.8485 211.645 37.9659 212.08 37.9659C212.535 37.9659 212.916 37.8447 213.222 37.6023C213.529 37.3561 213.76 37.0208 213.916 36.5966C214.075 36.1686 214.154 35.6818 214.154 35.1364C214.154 34.5947 214.077 34.1136 213.921 33.6932C213.766 33.2727 213.535 32.9432 213.228 32.7045C212.921 32.4659 212.539 32.3466 212.08 32.3466C211.641 32.3466 211.268 32.4621 210.961 32.6932C210.654 32.9242 210.421 33.2481 210.262 33.6648C210.107 34.0814 210.029 34.572 210.029 35.1364Z" fill="black"/>
<path fill-rule="evenodd" clip-rule="evenodd" d="M335.44 2.15215C323.795 2.15215 314.352 11.5932 314.352 23.2404C314.352 32.5575 320.394 40.4624 328.773 43.2506C329.827 43.4459 330.214 42.7931 330.214 42.2359C330.214 41.7333 330.195 40.0718 330.186 38.3102C324.318 39.5856 323.081 35.822 323.081 35.822C322.122 33.3843 320.739 32.7359 320.739 32.7359C318.826 31.4274 320.883 31.4541 320.883 31.4541C323.001 31.6028 324.116 33.6276 324.116 33.6276C325.997 36.8515 329.05 35.9191 330.253 35.3803C330.442 34.0172 330.989 33.0864 331.592 32.56C326.908 32.0271 321.984 30.2184 321.984 22.138C321.984 19.8356 322.808 17.9546 324.157 16.4775C323.938 15.9461 323.216 13.8009 324.361 10.8962C324.361 10.8962 326.132 10.3302 330.16 13.0589C331.843 12.5914 333.647 12.357 335.439 12.3491C337.232 12.3575 339.037 12.5919 340.722 13.0589C344.747 10.3307 346.515 10.8967 346.515 10.8967C347.663 13.8014 346.942 15.9461 346.723 16.478C348.075 17.9541 348.893 19.8356 348.893 22.1385C348.893 30.2378 343.959 32.0212 339.263 32.5426C340.02 33.1969 340.694 34.4807 340.694 36.4485C340.694 39.2698 340.67 41.5405 340.67 42.2349C340.67 42.795 341.05 43.4533 342.118 43.2461C350.493 40.4545 356.528 32.5525 356.528 23.2384C356.528 11.5937 347.087 2.15215 335.44 2.15215Z" fill="#181616"/>
<path d="M322.34 32.4296C322.293 32.5347 322.128 32.5659 321.978 32.494C321.824 32.4246 321.739 32.2824 321.789 32.1768C321.833 32.0697 321.999 32.0395 322.152 32.1114C322.306 32.1808 322.392 32.3245 322.34 32.4296ZM323.194 33.3833C323.093 33.476 322.896 33.4328 322.763 33.2851C322.625 33.1379 322.599 32.9411 322.701 32.847C322.804 32.7538 322.995 32.7974 323.132 32.9446C323.271 33.0933 323.298 33.2881 323.193 33.3828L323.194 33.3833ZM324.025 34.5967C323.896 34.6869 323.684 34.6026 323.554 34.4148C323.424 34.2279 323.424 34.0033 323.557 33.9126C323.687 33.8224 323.896 33.9037 324.027 34.0896C324.157 34.2804 324.157 34.5055 324.025 34.5967ZM325.164 35.7704C325.049 35.8978 324.802 35.8636 324.622 35.6896C324.438 35.5196 324.387 35.2782 324.502 35.1508C324.62 35.0234 324.867 35.0591 325.049 35.2316C325.232 35.4011 325.287 35.6435 325.164 35.7704ZM326.736 36.4515C326.685 36.617 326.448 36.6919 326.209 36.622C325.97 36.5496 325.814 36.3563 325.862 36.1897C325.912 36.0232 326.15 35.9454 326.391 36.0202C326.629 36.0916 326.785 36.2829 326.736 36.4515ZM328.461 36.5779C328.468 36.7513 328.265 36.8961 328.014 36.899C327.762 36.905 327.558 36.7642 327.555 36.5927C327.555 36.4173 327.753 36.2745 328.005 36.2705C328.256 36.2656 328.461 36.4054 328.461 36.5779ZM330.067 36.3047C330.097 36.4743 329.923 36.6487 329.674 36.6948C329.429 36.7404 329.203 36.6354 329.172 36.4668C329.142 36.2933 329.319 36.1199 329.563 36.0743C329.812 36.0306 330.035 36.1323 330.067 36.3047Z" fill="#181616"/>
<path d="M316.037 55.0847H310.734C310.668 55.0847 310.605 55.1108 310.558 55.1572C310.512 55.2037 310.486 55.2668 310.486 55.3325V57.9258C310.486 57.9916 310.512 58.0546 310.558 58.1011C310.605 58.1476 310.668 58.1737 310.734 58.1737H312.802V61.3955C312.802 61.3955 312.338 61.5541 311.052 61.5541C309.538 61.5541 307.421 61.001 307.421 56.3456C307.421 51.6898 309.625 51.0767 311.695 51.0767C313.487 51.0767 314.258 51.3919 314.75 51.5441C314.903 51.5907 315.047 51.437 315.047 51.3002L315.638 48.7946C315.639 48.7571 315.631 48.7199 315.614 48.6862C315.598 48.6526 315.573 48.6234 315.543 48.6013C315.343 48.4585 314.127 47.7785 311.053 47.7785C307.512 47.7785 303.88 49.2843 303.88 56.5271C303.88 63.7688 308.039 64.8479 311.543 64.8479C314.445 64.8479 316.205 63.6077 316.205 63.6077C316.277 63.568 316.285 63.4664 316.285 63.4193V55.332C316.285 55.2663 316.259 55.2032 316.213 55.1567C316.166 55.1103 316.103 55.0847 316.037 55.0847ZM343.126 48.3971H340.139C340.107 48.3972 340.074 48.4038 340.044 48.4164C340.014 48.429 339.987 48.4474 339.964 48.4706C339.941 48.4937 339.923 48.5212 339.911 48.5513C339.898 48.5815 339.892 48.6138 339.892 48.6464L339.893 54.418H335.238V48.6464C335.238 48.6139 335.232 48.5816 335.22 48.5515C335.207 48.5213 335.189 48.4939 335.166 48.4707C335.144 48.4476 335.116 48.4292 335.086 48.4165C335.056 48.4039 335.024 48.3973 334.992 48.3971H332.005C331.973 48.3972 331.94 48.4038 331.91 48.4164C331.88 48.429 331.853 48.4474 331.83 48.4706C331.807 48.4937 331.789 48.5212 331.777 48.5513C331.764 48.5815 331.758 48.6138 331.758 48.6464V64.2749C331.758 64.4122 331.869 64.5242 332.005 64.5242H334.992C335.024 64.524 335.056 64.5174 335.087 64.5047C335.117 64.492 335.144 64.4736 335.167 64.4504C335.19 64.4272 335.208 64.3997 335.22 64.3695C335.232 64.3393 335.238 64.307 335.238 64.2744V57.5898H339.893L339.885 64.2744C339.885 64.4122 339.996 64.5242 340.133 64.5242H343.126C343.159 64.524 343.191 64.5174 343.221 64.5047C343.251 64.492 343.278 64.4736 343.301 64.4504C343.324 64.4272 343.342 64.3997 343.354 64.3695C343.367 64.3393 343.373 64.307 343.372 64.2744V48.6459C343.372 48.5081 343.263 48.3971 343.126 48.3971ZM319.747 48.7525C318.685 48.7525 317.822 49.6214 317.822 50.697C317.822 51.7711 318.685 52.6425 319.747 52.6425C320.811 52.6425 321.673 51.7711 321.673 50.697C321.673 49.6214 320.811 48.7525 319.747 48.7525ZM321.213 53.5149H318.236C318.099 53.5149 317.977 53.6556 317.977 53.7924V64.1281C317.977 64.432 318.166 64.5222 318.411 64.5222H321.093C321.388 64.5222 321.459 64.3775 321.459 64.1232V60.9777V53.7642C321.46 53.7316 321.453 53.6994 321.441 53.6693C321.429 53.6392 321.41 53.6118 321.388 53.5887C321.365 53.5655 321.337 53.5472 321.307 53.5346C321.277 53.522 321.245 53.515 321.213 53.5149ZM354.723 53.5382H351.759C351.726 53.5384 351.694 53.5451 351.664 53.5578C351.634 53.5705 351.607 53.589 351.584 53.6122C351.561 53.6354 351.543 53.6628 351.531 53.693C351.519 53.7232 351.513 53.7554 351.513 53.788V61.451C351.513 61.451 350.759 62.0012 349.691 62.0012C348.623 62.0012 348.34 61.517 348.34 60.4706V53.788C348.34 53.7554 348.334 53.7231 348.321 53.6929C348.309 53.6627 348.291 53.6352 348.268 53.612C348.245 53.5888 348.218 53.5703 348.188 53.5576C348.158 53.545 348.126 53.5384 348.093 53.5382H345.085C345.02 53.5387 344.957 53.5653 344.91 53.6121C344.864 53.6589 344.838 53.7222 344.839 53.788V60.9762C344.839 64.084 346.571 64.8444 348.954 64.8444C350.909 64.8444 352.485 63.7638 352.485 63.7638C352.485 63.7638 352.559 64.3338 352.594 64.4008C352.629 64.4682 352.716 64.5361 352.812 64.5361L354.725 64.5276C354.758 64.5275 354.79 64.521 354.82 64.5083C354.851 64.4957 354.878 64.4773 354.901 64.4541C354.924 64.4309 354.942 64.4034 354.955 64.3731C354.967 64.3429 354.973 64.3105 354.973 64.2778L354.972 53.7865C354.971 53.7208 354.945 53.6578 354.899 53.6112C354.852 53.5646 354.79 53.5382 354.724 53.5377L354.723 53.5382ZM362.823 53.1872C361.14 53.1872 359.995 53.9382 359.995 53.9382V48.6459C359.995 48.6134 359.989 48.5811 359.976 48.551C359.964 48.5208 359.946 48.4934 359.923 48.4702C359.9 48.4471 359.873 48.4287 359.843 48.416C359.813 48.4034 359.781 48.3968 359.748 48.3966H356.754C356.721 48.3966 356.689 48.403 356.659 48.4156C356.629 48.4281 356.601 48.4465 356.578 48.4697C356.555 48.4929 356.537 48.5204 356.525 48.5506C356.512 48.5809 356.506 48.6132 356.506 48.6459V64.2744C356.506 64.307 356.512 64.3394 356.525 64.3697C356.537 64.3999 356.555 64.4274 356.578 64.4506C356.601 64.4737 356.629 64.4921 356.659 64.5047C356.689 64.5172 356.721 64.5237 356.754 64.5237H358.832C358.926 64.5237 358.996 64.4756 359.048 64.3908C359.1 64.3066 359.174 63.6701 359.174 63.6701C359.174 63.6701 360.399 64.83 362.717 64.83C365.439 64.83 367 63.4501 367 58.6331C367 53.8162 364.507 53.1867 362.823 53.1867L362.823 53.1872ZM361.653 61.9923C360.626 61.9611 359.928 61.4946 359.928 61.4946V56.5454C359.928 56.5454 360.616 56.1241 361.46 56.0477C362.527 55.9521 363.556 56.2748 363.556 58.8205C363.556 61.5056 363.092 62.0354 361.654 61.9918L361.653 61.9923ZM330.085 61.9338C329.954 61.9338 329.62 61.9868 329.277 61.9868C328.176 61.9868 327.803 61.4753 327.803 60.8131V56.4185H330.043C330.076 56.4185 330.109 56.412 330.139 56.3994C330.169 56.3869 330.196 56.3684 330.219 56.3452C330.242 56.322 330.261 56.2944 330.273 56.2641C330.285 56.2338 330.292 56.2014 330.291 56.1687V53.7617C330.291 53.7291 330.285 53.6968 330.273 53.6666C330.26 53.6364 330.242 53.6089 330.219 53.5858C330.196 53.5627 330.169 53.5444 330.138 53.5318C330.108 53.5193 330.076 53.5129 330.043 53.5129H327.803L327.8 50.5537C327.8 50.4412 327.742 50.3852 327.612 50.3852H324.559C324.441 50.3852 324.377 50.4378 324.377 50.5513V53.6095C324.377 53.6095 322.847 53.9788 322.744 54.0086C322.692 54.0236 322.647 54.0549 322.615 54.0978C322.583 54.1407 322.565 54.1929 322.565 54.2465V56.1682C322.565 56.2007 322.571 56.233 322.584 56.2631C322.596 56.2933 322.614 56.3207 322.637 56.3439C322.66 56.367 322.687 56.3854 322.717 56.3981C322.747 56.4107 322.779 56.4173 322.812 56.4175H324.377V61.0411C324.377 64.4761 326.786 64.8132 328.412 64.8132C329.154 64.8132 330.042 64.5752 330.189 64.5207C330.278 64.4875 330.329 64.3958 330.329 64.2962L330.331 62.1821C330.33 62.1166 330.304 62.0541 330.258 62.0077C330.212 61.9612 330.149 61.9346 330.084 61.9333L330.085 61.9338Z" fill="#100E0F"/>
</svg>
