<svg width="101" height="37" viewBox="0 0 101 37" fill="none" xmlns="http://www.w3.org/2000/svg">
<path d="M85.85 -13.06H15.15C6.78289 -13.06 0 -8.82103 0 -3.592V40.592C0 45.821 6.78289 50.06 15.15 50.06H85.85C94.2171 50.06 101 45.821 101 40.592V-3.592C101 -8.82103 94.2171 -13.06 85.85 -13.06Z" fill="#5281B8"/>
<path opacity="0.8" d="M57.0082 33.6098C58.0659 33.4776 59.9699 33.2132 59.9699 31.6266C59.9699 31.6266 59.7584 27.6603 62.7201 27.1315C65.6818 26.6027 69.4898 30.9656 73.5093 32.6843C76.4711 33.8742 78.7981 33.742 78.7981 33.742L89.5873 33.6098C89.5873 33.6098 95.0877 33.3454 92.5491 30.569C92.3375 30.3045 90.6451 28.5858 84.2985 25.0161C77.7404 21.0498 78.7981 21.7109 86.6256 14.9682C91.4913 10.8696 93.6068 8.35764 92.9722 7.43217C92.126 6.5067 88.7411 6.63891 88.7411 6.63891H76.6826C75.4133 6.63891 74.7786 6.77112 74.144 7.43217C74.144 7.43217 72.24 10.7374 69.7014 13.3816C64.4125 19.0667 62.297 19.3311 61.2392 18.9345C59.3353 18.2734 59.7584 15.7614 59.7584 14.0427C59.7584 8.09322 61.2392 5.97786 57.0082 5.44902C54.258 5.1846 44.5265 4.92018 41.5648 5.84565C40.0839 6.37449 39.2377 7.29996 39.8724 7.43217C40.507 7.43217 42.411 7.56438 43.4688 8.35764C45.1612 10.0764 45.3727 18.2734 43.0457 19.0667C39.8724 20.521 31.8334 10.8696 29.9294 7.69659C29.5063 6.90333 28.8716 6.77112 27.3907 6.5067H15.7553C14.486 6.5067 12.582 6.63891 13.4282 8.22543C19.1402 15.6292 30.9871 33.742 52.354 33.6098H57.0082Z" fill="#E1E5AD"/>
</svg>
