<svg width="80" height="37" viewBox="0 0 80 37" fill="none" xmlns="http://www.w3.org/2000/svg">
<path d="M0 18.5C0 40.5915 17.9086 58.5 40 58.5C62.0915 58.5 80 40.5915 80 18.5C80 -3.5914 62.0915 -21.5 40 -21.5C17.9086 -21.5 0 -3.5914 0 18.5Z" fill="#0088CC"/>
<path d="M20.2498 17.7707C30.9872 13.0927 38.1472 10.0085 41.7297 8.51849C51.9585 4.26399 54.0837 3.52499 55.4692 3.50024C55.7737 3.49511 56.455 3.57074 56.8965 3.92874C57.269 4.23099 57.3715 4.63949 57.4207 4.92624C57.4697 5.21274 57.5307 5.86599 57.4822 6.37624C56.928 12.2002 54.5295 26.3337 53.3092 32.8567C52.793 35.617 51.7762 36.5425 50.792 36.633C48.6532 36.8297 47.029 35.2195 44.9572 33.8615C41.7155 31.7365 39.8842 30.4135 36.7375 28.34C33.101 25.9435 35.4585 24.6265 37.531 22.474C38.0732 21.9107 47.4975 13.3387 47.6797 12.561C47.7027 12.4637 47.7237 12.1012 47.5085 11.9097C47.293 11.7185 46.9752 11.784 46.7457 11.836C46.4207 11.9097 41.242 15.3327 31.2097 22.1047C29.7397 23.1142 28.4082 23.606 27.2155 23.5802C25.9002 23.5517 23.3705 22.8365 21.4899 22.2252C19.1833 21.4755 17.35 21.079 17.5097 19.8057C17.5928 19.1425 18.5062 18.464 20.2498 17.7707Z" fill="#E1E5AD"/>
</svg>
